<svg width="153" height="143" viewBox="0 0 153 143" fill="none" xmlns="http://www.w3.org/2000/svg">
<g opacity="0.6">
<path d="M118.216 18.407C118.216 21.2118 120.652 23.4855 123.657 23.4855H144.333C147.94 23.4855 150.5 20.887 150.5 17.6816C150.5 14.4761 147.577 11.8776 143.971 11.8776H142.52C142.52 10.0639 141.794 7.52469 140.343 6.07371C138.892 4.62273 135.99 3.17175 133.814 3.17175C131.275 3.17175 126.922 4.62273 125.108 7.16195C124.124 8.53888 123.294 11.5149 123.657 13.3286C120.652 13.3286 118.216 15.6023 118.216 18.407Z" stroke="#795C31" stroke-width="5"/>
<circle cx="105.52" cy="39.0835" r="3.44118" stroke="#795C31" stroke-width="4"/>
<path d="M51.8333 65.9266V63.4266C51.3264 63.4266 50.8314 63.5808 50.414 63.8686L51.8333 65.9266ZM8.33557 92.8882C7.19895 93.6721 6.91299 95.229 7.69687 96.3656C8.48075 97.5022 10.0376 97.7882 11.1742 97.0043L8.33557 92.8882ZM69.9706 94.9462V97.4462C70.4776 97.4462 70.9726 97.2921 71.3899 97.0043L69.9706 94.9462ZM2.5 137.427C1.11929 137.427 0 138.546 0 139.927C0 141.307 1.11929 142.427 2.5 142.427V137.427ZM101.167 137.427C99.7859 137.427 98.6667 138.546 98.6667 139.927C98.6667 141.307 99.7859 142.427 101.167 142.427V137.427ZM134.322 85.7C134.322 84.3193 133.203 83.2 131.822 83.2C130.442 83.2 129.322 84.3193 129.322 85.7H134.322ZM112.049 65.9266L113.817 64.1589C113.348 63.69 112.712 63.4266 112.049 63.4266V65.9266ZM139.301 96.714C140.277 97.6903 141.86 97.6903 142.836 96.714C143.813 95.7377 143.813 94.1548 142.836 93.1785L139.301 96.714ZM20.6373 92.4462C19.2565 92.4462 18.1373 93.5655 18.1373 94.9462C18.1373 96.327 19.2565 97.4462 20.6373 97.4462V92.4462ZM147.235 142.427C148.616 142.427 149.735 141.307 149.735 139.927C149.735 138.546 148.616 137.427 147.235 137.427V142.427ZM91.4118 73.1815C91.4118 74.5623 92.531 75.6815 93.9118 75.6815C95.2925 75.6815 96.4118 74.5623 96.4118 73.1815H91.4118ZM93.9118 50.6913H96.4118C96.4118 49.3106 95.2925 48.1913 93.9118 48.1913V50.6913ZM87.0196 50.6913V48.1913C85.6389 48.1913 84.5196 49.3106 84.5196 50.6913H87.0196ZM84.5196 73.1815C84.5196 74.5623 85.6389 75.6815 87.0196 75.6815C88.4003 75.6815 89.5196 74.5623 89.5196 73.1815H84.5196ZM50.414 63.8686L8.33557 92.8882L11.1742 97.0043L53.2527 67.9847L50.414 63.8686ZM25.7157 97.4462H69.9706V92.4462H25.7157V97.4462ZM59.451 137.427H25.7157V142.427H59.451V137.427ZM25.7157 137.427H2.5V142.427H25.7157V137.427ZM23.2157 94.9462V139.927H28.2157V94.9462H23.2157ZM131.822 137.427H101.167V142.427H131.822V137.427ZM134.322 139.927V85.7H129.322V139.927H134.322ZM59.451 142.427H73.2353V137.427H59.451V142.427ZM110.63 63.8686L82.3356 83.3818L85.1742 87.4979L113.468 67.9847L110.63 63.8686ZM82.3356 83.3818L68.5513 92.8882L71.3899 97.0043L85.1742 87.4979L82.3356 83.3818ZM73.2353 142.427H83.7549V137.427H73.2353V142.427ZM83.7549 142.427H131.822V137.427H83.7549V142.427ZM81.2549 85.4398V139.927H86.2549V85.4398H81.2549ZM110.281 67.6944L139.301 96.714L142.836 93.1785L113.817 64.1589L110.281 67.6944ZM20.6373 97.4462H25.7157V92.4462H20.6373V97.4462ZM131.822 142.427H147.235V137.427H131.822V142.427ZM93.9118 48.1913H87.0196V53.1913H93.9118V48.1913ZM84.5196 50.6913V65.9266H89.5196V50.6913H84.5196ZM84.5196 65.9266V73.1815H89.5196V65.9266H84.5196ZM51.8333 68.4266H87.0196V63.4266H51.8333V68.4266ZM93.9118 68.4266H112.049V63.4266H93.9118V68.4266ZM96.4118 73.1815V65.9266H91.4118V73.1815H96.4118ZM96.4118 65.9266V50.6913H91.4118V65.9266H96.4118Z" fill="#795C31"/>
</g>
</svg>
