<svg width="27" height="28" viewBox="0 0 27 28" fill="none" xmlns="http://www.w3.org/2000/svg">
<path d="M21.3223 9.47945H7.46143L9.76912 17.5564H19.0173M21.3076 9.47945L18.9999 17.5564" stroke="#D5D5D5" stroke-linecap="round" stroke-linejoin="round"/>
<path d="M5.53846 7.17175L5.92257 6.85166C5.82758 6.73766 5.68685 6.67175 5.53846 6.67175V7.17175ZM4 6.67175C3.72386 6.67175 3.5 6.89561 3.5 7.17175C3.5 7.4479 3.72386 7.67175 4 7.67175V6.67175ZM5.15435 7.49185L7.07743 9.79954L7.84565 9.15935L5.92257 6.85166L5.15435 7.49185ZM5.53846 6.67175H4V7.67175H5.53846V6.67175Z" fill="#D5D5D5"/>
<circle cx="10.9231" cy="21.0179" r="1.15385" fill="#D5D5D5"/>
<circle cx="17.8462" cy="21.0179" r="1.15385" fill="#D5D5D5"/>
</svg>
