<svg width="54" height="51" viewBox="0 0 54 51" fill="none" xmlns="http://www.w3.org/2000/svg">
<path d="M33.4375 22.9826C33.8946 23.2968 34.305 23.9381 33.8946 25.6699C33.8946 25.6699 33.3172 26.9567 32.57 28.0944C31.8228 29.2321 30.3691 30.797 30.3691 30.797C29.8436 31.3365 29.193 31.7503 27.8785 31.3365C27.0837 30.7899 26.9378 29.622 27.5526 28.7278L27.8 28.368C27.3503 28.0588 27.1055 27.6178 26.9931 27.0106C26.8807 26.4034 26.9318 25.5055 27.3029 24.9658C27.7359 24.3362 28.5328 23.7121 29.4717 23.6953C29.9808 23.6862 30.9882 23.5389 31.3761 23.9381C31.6714 22.8588 32.742 22.5044 33.4375 22.9826Z" stroke="white" stroke-width="3"/>
<path d="M20.8926 27.0764C28.0926 17.1426 28.7524 8.45177 27.5857 2.17175L50.5857 6.45359C52.472 13.279 52.2307 21.6684 49.3926 29.196C46.5326 36.7819 41.4992 42.8774 32.3949 49.4295L1.5 41.66C7.5 39.0909 13.6926 37.0103 20.8926 27.0764Z" stroke="white" stroke-width="3" stroke-linecap="round" stroke-linejoin="round"/>
<path d="M39.3583 18.1393C38.5275 27.534 34.5944 34.1278 28.8162 37.8004" stroke="white" stroke-width="3" stroke-linecap="round" stroke-linejoin="round"/>
<path d="M43.3727 19.7533C42.651 29.157 38.7946 35.796 33.0594 39.5354" stroke="white" stroke-width="3" stroke-linecap="round" stroke-linejoin="round"/>
</svg>
